<?xml version="1.0" encoding="UTF-8" standalone="no"?>
<!-- Uploaded to: SVG Repo, www.svgrepo.com, Transformed by: SVG Repo Mixer Tools -->

<svg
   fill="#a1d99b"
   version="1.1"
   id="Capa_1"
   width="800px"
   height="800px"
   viewBox="0 0 31.1 31.101"
   xml:space="preserve"
   sodipodi:docname="bottom5-rank158.svg"
   inkscape:version="1.3 (0e150ed6c4, 2023-07-21)"
   xmlns:inkscape="http://www.inkscape.org/namespaces/inkscape"
   xmlns:sodipodi="http://sodipodi.sourceforge.net/DTD/sodipodi-0.dtd"
   xmlns="http://www.w3.org/2000/svg"
   xmlns:svg="http://www.w3.org/2000/svg"><defs
   id="defs3"><rect
     x="28.378378"
     y="9.4594595"
     width="752.7027"
     height="766.21622"
     id="rect3" /><filter
     style="color-interpolation-filters:sRGB;"
     inkscape:label="Drop Shadow"
     id="filter178"
     x="-0.081295305"
     y="-0.077169119"
     width="1.2134002"
     height="1.186492"><feFlood
       result="flood"
       in="SourceGraphic"
       flood-opacity="0.686275"
       flood-color="rgb(0,0,0)"
       id="feFlood177" /><feGaussianBlur
       result="blur"
       in="SourceGraphic"
       stdDeviation="1.000000"
       id="feGaussianBlur177" /><feOffset
       result="offset"
       in="blur"
       dx="1.500000"
       dy="1.000000"
       id="feOffset177" /><feComposite
       result="comp1"
       operator="in"
       in="flood"
       in2="offset"
       id="feComposite177" /><feComposite
       result="comp2"
       operator="over"
       in="SourceGraphic"
       in2="comp1"
       id="feComposite178" /></filter><linearGradient
     id="linearGradient33"
     inkscape:label="Gold Medal"><stop
       style="stop-color:#ffd587;stop-opacity:1;"
       offset="0"
       id="stop47" /><stop
       style="stop-color:#cfa344;stop-opacity:1;"
       offset="0.5"
       id="stop48" /><stop
       style="stop-color:#9a5f00;stop-opacity:1;"
       offset="1"
       id="stop49" /></linearGradient><rect
     x="28.378378"
     y="9.4594593"
     width="752.7027"
     height="766.21625"
     id="rect3-5" /><filter
     style="color-interpolation-filters:sRGB"
     inkscape:label="Drop Shadow"
     id="filter52"
     x="-0.032716613"
     y="-0.012924812"
     width="1.0868366"
     height="1.0343051"><feFlood
       result="flood"
       in="SourceGraphic"
       flood-opacity="0.686275"
       flood-color="rgb(81,81,81)"
       id="feFlood51" /><feGaussianBlur
       result="blur"
       in="SourceGraphic"
       stdDeviation="1.000000"
       id="feGaussianBlur51" /><feOffset
       result="offset"
       in="blur"
       dx="3.500000"
       dy="3.500000"
       id="feOffset51" /><feComposite
       result="comp1"
       operator="in"
       in="flood"
       in2="offset"
       id="feComposite51" /><feComposite
       result="comp2"
       operator="over"
       in="SourceGraphic"
       in2="comp1"
       id="feComposite52" /></filter></defs><sodipodi:namedview
   id="namedview3"
   pagecolor="#ffffff"
   bordercolor="#000000"
   borderopacity="0.25"
   inkscape:showpageshadow="2"
   inkscape:pageopacity="0.0"
   inkscape:pagecheckerboard="0"
   inkscape:deskcolor="#d1d1d1"
   inkscape:zoom="0.37"
   inkscape:cx="400"
   inkscape:cy="400"
   inkscape:window-width="1440"
   inkscape:window-height="830"
   inkscape:window-x="-6"
   inkscape:window-y="-6"
   inkscape:window-maximized="1"
   inkscape:current-layer="Capa_1"
   showguides="false" />&#10;&#10;<g
   id="SVGRepo_bgCarrier"
   stroke-width="0" />&#10;&#10;<g
   id="SVGRepo_tracerCarrier"
   stroke-linecap="round"
   stroke-linejoin="round" />&#10;&#10;<g
   id="SVGRepo_iconCarrier"
   style="fill:#5c1f1f;filter:url(#filter178);fill-opacity:1"> <g
   id="g3"
   style="fill:#5c1f1f;fill-opacity:1"> <g
   id="g2"
   style="fill:#5c1f1f;fill-opacity:1"> <path
   d="M15.562,3.803L15.562,3.803c-0.004-0.001-0.008-0.001-0.012,0c-0.004,0-0.008-0.001-0.012-0.001v0.001 c-5.156,0.063-9.334,4.274-9.334,9.445c0,5.172,4.178,9.381,9.334,9.445v0.001c0.004,0,0.008,0,0.012-0.001 c0.004,0,0.008,0.001,0.012,0.001v-0.001c5.157-0.062,9.334-4.271,9.334-9.445C24.897,8.079,20.719,3.868,15.562,3.803z"
   id="path8"
   style="fill:#5c1f1f;fill-opacity:1" /> <path
   d="M26.633,21.186c0.272-0.395,0.456-0.812,0.535-1.212c0.085-0.421,0.062-0.816-0.049-1.155l-0.002-0.002 c-0.002-0.007-0.004-0.015-0.006-0.021c-0.006-0.013-0.012-0.027-0.014-0.041l-0.002-0.005c-0.146-0.416-0.164-0.931-0.052-1.461 l-0.005-0.003c0.021-0.09,0.043-0.179,0.072-0.27c0.08-0.242,0.184-0.467,0.303-0.671c0.452-0.637,1.753-1.187,1.753-3.176 c0-2.082-1.678-2.646-1.994-3.552c-0.008-0.02-0.018-0.031-0.026-0.049c-0.017-0.044-0.034-0.086-0.049-0.131 c-0.201-0.635-0.218-1.265-0.052-1.762l0.013-0.034c0.108-0.321,0.135-0.706,0.065-1.115h-0.001V6.523 c-0.009-0.052-0.021-0.104-0.032-0.157L27.089,6.35c-0.012-0.047-0.024-0.095-0.038-0.142l-0.011-0.036 C27.03,6.131,27.016,6.089,27,6.049l-0.02-0.054l-0.039-0.099l-0.03-0.078l-0.03-0.064c-0.017-0.037-0.033-0.072-0.051-0.108 l-0.009-0.017c-0.083-0.16-0.179-0.318-0.29-0.47l-0.02-0.027L26.5,5.118c-0.303-0.411-0.665-0.73-1.04-0.939 c-0.374-0.211-0.759-0.312-1.112-0.309h-0.004c-0.009,0-0.016,0-0.022-0.001c-0.015,0.001-0.028,0.002-0.044,0.001h-0.006 c-0.439,0.012-0.936-0.131-1.405-0.403L22.864,3.47c-0.077-0.047-0.156-0.098-0.232-0.153c-0.537-0.396-0.918-0.897-1.074-1.396 l-0.012-0.036c-0.1-0.323-0.304-0.649-0.602-0.939V0.945c-0.038-0.038-0.078-0.075-0.119-0.109l-0.014-0.013 c-0.037-0.031-0.074-0.063-0.113-0.093l-0.029-0.023L20.563,0.63l-0.047-0.032l-0.09-0.059l-0.07-0.043l-0.062-0.035 c-0.035-0.021-0.07-0.039-0.105-0.057l-0.017-0.009c-0.159-0.081-0.33-0.153-0.51-0.211l-0.032-0.01l-0.02-0.007 c-0.486-0.152-0.967-0.197-1.394-0.147c-0.427,0.051-0.798,0.194-1.081,0.407l-0.004,0.001c-0.006,0.006-0.013,0.01-0.02,0.014 c-0.01,0.011-0.021,0.019-0.035,0.026l-0.003,0.003c-0.351,0.27-0.834,0.444-1.375,0.502v0.005 c-0.049,0.005-0.099,0.006-0.148,0.007c-0.05-0.001-0.1-0.001-0.148-0.007V0.974c-0.541-0.058-1.025-0.232-1.375-0.502 l-0.003-0.003C14.012,0.46,14,0.453,13.99,0.441c-0.007-0.004-0.014-0.008-0.02-0.014l-0.003-0.001 c-0.284-0.213-0.655-0.356-1.082-0.407c-0.426-0.05-0.906-0.005-1.394,0.147l-0.019,0.007l-0.032,0.011 c-0.18,0.058-0.35,0.13-0.51,0.211l-0.017,0.009c-0.035,0.018-0.07,0.036-0.105,0.057l-0.062,0.035l-0.07,0.043l-0.09,0.059 L10.539,0.63l-0.104,0.075l-0.03,0.024c-0.039,0.03-0.076,0.061-0.113,0.092l-0.014,0.013c-0.041,0.034-0.081,0.071-0.119,0.109 l-0.001,0.001C9.86,1.234,9.657,1.561,9.557,1.883L9.545,1.92C9.39,2.419,9.009,2.921,8.472,3.316 C8.395,3.373,8.315,3.423,8.239,3.47L8.235,3.466C7.766,3.738,7.27,3.881,6.831,3.87H6.825c-0.016,0.001-0.03,0-0.044-0.001 C6.772,3.87,6.767,3.87,6.757,3.87H6.754C6.399,3.867,6.016,3.967,5.642,4.178c-0.375,0.209-0.737,0.528-1.04,0.939L4.59,5.132 L4.57,5.16c-0.112,0.151-0.207,0.31-0.29,0.47L4.271,5.646c-0.017,0.036-0.034,0.071-0.05,0.108l-0.03,0.064L4.16,5.896 L4.121,5.996L4.103,6.049c-0.015,0.04-0.029,0.082-0.04,0.122L4.052,6.208C4.038,6.254,4.024,6.302,4.014,6.35L4.011,6.367 C3.999,6.419,3.986,6.473,3.978,6.523v0.002l0,0c-0.07,0.41-0.043,0.794,0.066,1.116l0.012,0.034 c0.166,0.497,0.149,1.127-0.052,1.762C3.99,9.481,3.972,9.523,3.955,9.567c-0.009,0.018-0.019,0.03-0.026,0.049 c-0.316,0.906-1.994,1.47-1.994,3.552c0,1.989,1.301,2.539,1.753,3.176c0.119,0.204,0.222,0.429,0.303,0.671 c0.029,0.091,0.052,0.18,0.072,0.27l-0.005,0.003c0.113,0.53,0.096,1.045-0.051,1.461l-0.002,0.005 c-0.002,0.014-0.008,0.028-0.014,0.041c-0.002,0.008-0.004,0.016-0.006,0.021l-0.002,0.002c-0.112,0.339-0.134,0.734-0.049,1.155 c0.079,0.399,0.263,0.817,0.535,1.212L0.79,28.078h3.924l1.993,3.022l3.391-5.584c0.027,0.027,0.045,0.06,0.074,0.086 c0.316,0.289,0.732,0.535,1.218,0.694c0.18,0.059,0.36,0.101,0.537,0.129l0.018,0.003c0.041,0.006,0.08,0.01,0.118,0.015 l0.074,0.01l0.082,0.007l0.106,0.007h0.058h0.129h0.036c0.049-0.003,0.099-0.005,0.146-0.01l0.018-0.001 c0.055-0.005,0.108-0.014,0.162-0.021h0.001c0.411-0.061,0.767-0.205,1.038-0.408l0.029-0.021 c0.401-0.299,0.976-0.475,1.609-0.494c0.633,0.02,1.208,0.195,1.609,0.494l0.028,0.021c0.271,0.203,0.627,0.349,1.039,0.408l0,0 c0.055,0.007,0.107,0.016,0.162,0.021l0.019,0.001c0.048,0.005,0.098,0.007,0.146,0.01h0.036h0.13h0.057l0.106-0.007l0.082-0.007 l0.074-0.01c0.038-0.005,0.077-0.009,0.118-0.015l0.018-0.003c0.178-0.028,0.357-0.07,0.537-0.129 c0.485-0.159,0.901-0.405,1.219-0.694c0.028-0.026,0.047-0.059,0.073-0.086l3.392,5.584l1.992-3.021h3.924L26.633,21.186z M25.257,16.134c-0.11,0.372-0.239,0.736-0.392,1.095c-0.516,1.218-1.252,2.312-2.191,3.251c-0.938,0.938-2.031,1.677-3.248,2.19 c-1.229,0.519-2.531,0.785-3.875,0.799c-1.343-0.014-2.646-0.28-3.874-0.799c-1.218-0.516-2.311-1.252-3.249-2.19 c-0.939-0.938-1.677-2.033-2.191-3.251c-0.152-0.357-0.281-0.723-0.392-1.095c-0.122-0.446-0.412-1.637-0.412-2.885 c0-1.581,0.412-2.885,0.412-2.885c0.11-0.371,0.239-0.736,0.392-1.096C6.752,8.05,7.49,6.958,8.429,6.019 c0.938-0.938,2.031-1.676,3.249-2.191c1.229-0.519,2.531-0.785,3.874-0.798c1.343,0.013,2.646,0.279,3.875,0.798 c1.217,0.515,2.311,1.253,3.248,2.191c0.939,0.939,1.678,2.032,2.191,3.249c0.152,0.359,0.281,0.725,0.392,1.096 c0,0,0.412,1.304,0.412,2.885C25.669,14.497,25.379,15.688,25.257,16.134z"
   id="path7"
   style="fill:#5c1f1f;fill-opacity:1" /> </g> </g> <path
   style="font-variation-settings:'wght' 900;fill:#5c1f1f;stroke-width:1.35135;fill-opacity:1"
   d=""
   id="path9"
   transform="matrix(0.03887625,0,0,0.03887625,-5e-4,0)" /></g>&#10;&#10;<text
   xml:space="preserve"
   transform="matrix(0.03887625,0,0,0.03887625,9.6079138,-3.468357)"
   id="text3"
   style="font-size:533.333px;font-family:Castellar;-inkscape-font-specification:'Castellar, @wght=900';font-variation-settings:'wght' 900;white-space:pre;shape-inside:url(#rect3);display:inline;fill:#ffffff"><tspan
     x="28.378906"
     y="606.56007"
     id="tspan5"><tspan
       style="font-weight:bold;font-size:566.667px;font-family:'Bodoni MT';-inkscape-font-specification:'Bodoni MT, Bold'"
       id="tspan1">1</tspan></tspan></text><path
   style="fill:#ffffff;stroke-width:0.95555;fill-opacity:1"
   d="M 376.00881,601.91533 C 326.30814,596.82894 277.7287,576.81668 237.93188,545.03466 227.47095,536.68049 206.69518,515.89839 198.39507,505.48579 161.85756,459.64908 142.5725,406.73651 140.75505,347.33842 139.33135,300.80908 150.35948,254.91567 172.6596,214.56809 224.47812,120.8129 328.64597,67.145397 432.37747,80.760885 519.4059,92.183977 595.72272,147.73867 633.88349,227.44683 c 17.26627,36.06484 25.52706,72.48826 25.56677,112.72886 0.0393,39.81276 -8.88782,79.29828 -25.81631,114.18819 -14.11976,29.10109 -27.98795,48.53896 -51.17082,71.72182 -43.2886,43.28861 -94.97308,68.29794 -155.86541,75.42089 -13.04561,1.52604 -37.72322,1.72541 -50.58891,0.40874 z m 62.5885,-21.25464 c 75.57177,-13.28925 140.0386,-60.5258 174.95673,-128.19543 35.46868,-68.73656 36.47694,-148.35217 2.75921,-217.87781 -11.90258,-24.543 -26.57787,-45.20804 -45.84432,-64.55577 -20.69891,-20.78623 -40.64791,-35.14848 -66.41646,-47.81645 -61.2978,-30.134357 -130.09394,-32.605514 -193.02104,-6.93332 -81.96797,33.44025 -138.98058,107.96814 -150.0705,196.17479 -2.2667,18.02889 -1.54315,52.81638 1.44939,69.68496 11.90556,67.11006 49.68868,125.16615 105.62137,162.29375 27.12268,18.00378 56.55797,30.108 87.86782,36.13251 19.16679,3.688 25.15104,4.16812 47.82024,3.83664 17.30097,-0.25299 23.47466,-0.73868 34.87756,-2.74387 z"
   id="path174"
   transform="matrix(0.03887625,0,0,0.03887625,-5e-4,0)"
   inkscape:label="circle-outline" /><path
   d="m 111.04894,58.215138 v 0 c -0.0272,-0.0068 -0.0545,-0.0068 -0.0817,0 -0.0272,0 -0.0545,-0.0068 -0.0817,-0.0068 v 0.0068 c -35.090621,0.428765 -63.525184,29.087919 -63.525184,64.280622 0,35.19951 28.434563,63.84506 63.525174,64.28063 v 0.007 c 0.0272,0 0.0545,0 0.0817,-0.007 0.0272,0 0.0545,0.007 0.0817,0.007 v -0.007 c 35.09743,-0.42196 63.52518,-29.0675 63.52518,-64.28063 0.007,-35.179092 -28.42775,-63.838246 -63.52517,-64.280622 z"
   id="path8-4"
   style="fill:#5c1f1f;stroke-width:6.80576;filter:url(#filter178);fill-opacity:1"
   transform="matrix(0.14693386,0,0,0.14693386,-0.77699192,-4.739949)" /><text
   xml:space="preserve"
   transform="matrix(0.03887625,0,0,0.03887625,7.9834737,0.49213992)"
   id="text3-9"
   style="font-style:normal;font-variant:normal;font-weight:bold;font-stretch:normal;font-size:566.667px;font-family:'Malgun Gothic';-inkscape-font-specification:'Malgun Gothic, Bold';font-variant-ligatures:normal;font-variant-caps:normal;font-variant-numeric:normal;font-variant-east-asian:normal;white-space:pre;shape-inside:url(#rect3-5);display:inline;fill:#ffffff;stroke:#000000;stroke-width:5.9;stroke-dasharray:none;stroke-opacity:1;filter:url(#filter52)"><tspan
     x="28.378906"
     y="533.51528"
     id="tspan6">1</tspan></text></svg>
