<?xml version="1.0" encoding="UTF-8" standalone="no"?>
<!-- Uploaded to: SVG Repo, www.svgrepo.com, Transformed by: SVG Repo Mixer Tools -->

<svg
   fill="#a1d99b"
   version="1.1"
   id="Capa_1"
   width="800px"
   height="800px"
   viewBox="0 0 31.1 31.101"
   xml:space="preserve"
   sodipodi:docname="bottom5-rank156.svg"
   inkscape:version="1.3 (0e150ed6c4, 2023-07-21)"
   xmlns:inkscape="http://www.inkscape.org/namespaces/inkscape"
   xmlns:sodipodi="http://sodipodi.sourceforge.net/DTD/sodipodi-0.dtd"
   xmlns="http://www.w3.org/2000/svg"
   xmlns:svg="http://www.w3.org/2000/svg"><defs
   id="defs3"><rect
     x="28.378378"
     y="9.4594595"
     width="752.7027"
     height="766.21622"
     id="rect3" /><filter
     style="color-interpolation-filters:sRGB;"
     inkscape:label="Drop Shadow"
     id="filter57"
     x="-0.047609512"
     y="-0.045142975"
     width="1.1613433"
     height="1.1529845"><feFlood
       result="flood"
       in="SourceGraphic"
       flood-opacity="0.686275"
       flood-color="rgb(21,21,21)"
       id="feFlood56" /><feGaussianBlur
       result="blur"
       in="SourceGraphic"
       stdDeviation="15.000000"
       id="feGaussianBlur56" /><feOffset
       result="offset"
       in="blur"
       dx="50.000000"
       dy="50.000000"
       id="feOffset56" /><feComposite
       result="comp1"
       operator="in"
       in="flood"
       in2="offset"
       id="feComposite56" /><feComposite
       result="comp2"
       operator="over"
       in="SourceGraphic"
       in2="comp1"
       id="feComposite57" /></filter><rect
     x="28.378378"
     y="9.4594593"
     width="752.7027"
     height="766.21625"
     id="rect3-7" /><filter
     style="color-interpolation-filters:sRGB"
     inkscape:label="Drop Shadow"
     id="filter52"
     x="-0.032716613"
     y="-0.012924812"
     width="1.0868366"
     height="1.0343051"><feFlood
       result="flood"
       in="SourceGraphic"
       flood-opacity="0.686275"
       flood-color="rgb(81,81,81)"
       id="feFlood51" /><feGaussianBlur
       result="blur"
       in="SourceGraphic"
       stdDeviation="1.000000"
       id="feGaussianBlur51" /><feOffset
       result="offset"
       in="blur"
       dx="3.500000"
       dy="3.500000"
       id="feOffset51" /><feComposite
       result="comp1"
       operator="in"
       in="flood"
       in2="offset"
       id="feComposite51" /><feComposite
       result="comp2"
       operator="over"
       in="SourceGraphic"
       in2="comp1"
       id="feComposite52" /></filter><linearGradient
     id="linearGradient33"
     inkscape:label="Gold Medal"><stop
       style="stop-color:#ffd587;stop-opacity:1;"
       offset="0"
       id="stop47" /><stop
       style="stop-color:#cfa344;stop-opacity:1;"
       offset="0.5"
       id="stop48" /><stop
       style="stop-color:#9a5f00;stop-opacity:1;"
       offset="1"
       id="stop49" /></linearGradient><rect
     x="28.378378"
     y="9.4594593"
     width="752.7027"
     height="766.21625"
     id="rect3-2" /><filter
     style="color-interpolation-filters:sRGB"
     inkscape:label="Drop Shadow"
     id="filter52-5"
     x="-0.021178005"
     y="-0.01270402"
     width="1.0562108"
     height="1.0337191"><feFlood
       result="flood"
       in="SourceGraphic"
       flood-opacity="0.686275"
       flood-color="rgb(81,81,81)"
       id="feFlood51-8" /><feGaussianBlur
       result="blur"
       in="SourceGraphic"
       stdDeviation="1.000000"
       id="feGaussianBlur51-5" /><feOffset
       result="offset"
       in="blur"
       dx="3.500000"
       dy="3.500000"
       id="feOffset51-4" /><feComposite
       result="comp1"
       operator="in"
       in="flood"
       in2="offset"
       id="feComposite51-4" /><feComposite
       result="comp2"
       operator="over"
       in="SourceGraphic"
       in2="comp1"
       id="feComposite52-8" /></filter></defs><sodipodi:namedview
   id="namedview3"
   pagecolor="#ffffff"
   bordercolor="#000000"
   borderopacity="0.25"
   inkscape:showpageshadow="2"
   inkscape:pageopacity="0.0"
   inkscape:pagecheckerboard="0"
   inkscape:deskcolor="#d1d1d1"
   inkscape:zoom="0.52325902"
   inkscape:cx="156.71015"
   inkscape:cy="399.41977"
   inkscape:window-width="1440"
   inkscape:window-height="830"
   inkscape:window-x="-6"
   inkscape:window-y="-6"
   inkscape:window-maximized="1"
   inkscape:current-layer="Capa_1"
   showguides="false" />&#10;&#10;&#10;&#10;&#10;&#10;&#10;&#10;<g
   id="g1"><path
     style="fill:#0a6633;stroke-width:0.95555;fill-opacity:1;filter:url(#filter57)"
     d="m 147.04961,760.3751 -25.3387,-38.4573 -49.965579,-0.24746 c -45.002194,-0.22288 -49.90824,-0.39687 -49.388404,-1.75154 0.317443,-0.82725 21.285308,-40.27564 46.595255,-87.66311 25.309946,-47.38747 46.012998,-86.58903 46.006788,-87.11458 -0.006,-0.52556 -1.42572,-3.32054 -3.15447,-6.21108 -11.20466,-18.73464 -14.003289,-37.89287 -8.30538,-56.8552 4.28139,-14.24822 4.14503,-28.5018 -0.42018,-43.92162 -3.788934,-12.79779 -6.702559,-17.13769 -21.834185,-32.52236 -7.75362,-7.88329 -15.84094,-17.0336 -17.971823,-20.33404 -8.758988,-13.56644 -12.628798,-27.65411 -12.628798,-45.97391 0,-26.88168 6.965759,-41.4456 32.860778,-68.70486 15.233809,-16.03639 18.134968,-20.59852 21.697388,-34.11949 2.57059,-9.75651 2.82584,-27.8922 0.50434,-35.83311 -3.19343,-10.92342 -3.6858,-14.7742 -3.22796,-25.24564 0.36903,-8.44035 1.04227,-12.27292 3.31976,-18.8984 6.92451,-20.14421 22.73491,-39.25367 40.40066,-48.83082 9.4671,-5.13241 14.70936,-6.54648 27.47806,-7.41207 23.96303,-1.624443 38.34785,-7.748998 53.73616,-22.878984 9.29746,-9.141389 12.95172,-14.304082 16.74284,-23.654049 4.75171,-11.719065 7.99357,-17.847272 12.36445,-23.373015 15.55134,-19.660213 47.59461,-32.2704386 74.38472,-29.2731737 10.5911,1.1849256 19.27967,4.4334723 28.59826,10.6925187 10.2469,6.882572 17.37343,9.989293 27.97182,12.193968 10.79349,2.245263 14.07005,2.237601 25.19989,-0.05892 9.75349,-2.012531 19.91325,-6.383851 27.49209,-11.828708 10.94514,-7.8633003 21.95253,-11.18440317 37.13139,-11.2031306 19.29805,-0.0238097 36.9094,5.5790594 52.47664,16.6949076 11.54266,8.242084 19.16303,18.317314 24.39255,32.250472 11.13512,29.667569 40.98376,50.295994 73.01249,50.458984 23.91582,0.12171 49.43772,18.99608 62.71158,46.3775 5.96848,12.31184 7.95778,20.39504 7.99557,32.48869 0.0237,7.59528 -0.44876,11.02566 -2.30322,16.72212 -2.05947,6.32615 -2.32963,8.84757 -2.30366,21.49987 0.0513,24.99848 3.31251,32.49739 23.19732,53.3407 15.75308,16.51242 20.72206,23.08091 25.90333,34.24162 8.64877,18.62988 9.71569,41.76675 2.87261,62.2945 -4.5329,13.59768 -9.18705,20.39207 -25.29918,36.93315 -7.93483,8.14606 -15.32176,16.31601 -16.4154,18.15544 -3.36329,5.65681 -6.8865,15.29373 -8.49685,23.24115 -2.14232,10.57273 -1.41965,28.38879 1.49914,36.95848 3.2445,9.52602 3.70138,23.24706 1.11514,33.49062 -2.05051,8.12175 -7.03373,19.76624 -10.60548,24.7823 -1.05722,1.48472 -1.92222,3.27953 -1.92222,3.98845 0,0.70894 21.00262,40.63231 46.6725,88.71862 l 46.67249,87.42966 -49.88641,0.24727 -49.88641,0.24727 -24.66097,37.49694 c -13.56353,20.62333 -25.12469,38.00661 -25.69147,38.62953 -0.76048,0.83583 -12.26806,-17.38453 -43.91916,-69.53884 -23.58877,-38.86929 -43.2686,-70.90625 -43.73296,-71.19324 -0.46436,-0.28699 -2.87933,1.27012 -5.36659,3.46025 -8.14801,7.17459 -21.26557,13.79843 -34.30815,17.32421 -9.22646,2.49418 -29.35553,2.98484 -37.5804,0.91607 -7.18758,-1.80787 -16.42706,-6.07018 -21.9554,-10.12836 -22.56275,-16.56258 -59.18523,-16.35895 -83.63805,0.46503 -16.05912,11.04896 -37.66192,14.19417 -59.23888,8.62475 -10.06627,-2.59829 -25.25396,-10.12951 -32.83555,-16.28238 -3.34409,-2.7139 -6.42139,-4.57446 -6.83844,-4.13457 -0.41705,0.43988 -19.78132,32.1896 -43.03171,70.55492 -23.2504,38.36532 -42.55286,70.07602 -42.89435,70.46822 -0.3415,0.39219 -12.02333,-16.5927 -25.95962,-37.74422 z M 434.5874,601.5924 C 529.41222,587.39023 607.70667,525.4558 642.44963,437.16399 658.54034,396.27293 664.47141,344.05053 657.80591,301.95371 654.02641,278.08373 646.46079,252.20266 637.42706,232.24 600.08316,149.71785 521.80705,91.445865 432.71218,79.84174 c -26.56679,-3.460181 -50.22853,-2.853196 -77.24769,1.981603 -35.36179,6.327624 -68.10817,19.486067 -98.01021,39.383327 -17.80753,11.8494 -29.05511,21.25366 -44.52323,37.2265 -58.05974,59.95419 -83.59077,143.17631 -69.53311,226.65336 9.12973,54.21406 34.33232,103.1633 73.05111,141.88209 42.80942,42.80942 98.01265,69.1522 159.08198,75.91334 11.42936,1.26536 47.21503,0.48395 59.05637,-1.28956 z"
     id="path153"
     transform="matrix(0.03887625,0,0,0.03887625,-5e-4,0)"
     inkscape:label="frilly-circle" /><path
     style="display:inline;fill:#dee3db;fill-opacity:1;stroke-width:0.95555"
     d="m 373.61993,601.40125 c -4.99274,-0.6684 -10.58271,-1.41972 -12.42214,-1.6696 -4.54752,-0.61775 -15.89481,-3.09062 -25.24337,-5.50117 -4.2477,-1.09527 -8.15309,-2.09607 -8.67865,-2.22399 -0.52555,-0.12791 -1.60054,-0.50786 -2.38887,-0.84433 -3.96018,-1.69025 -12.42215,-4.28453 -12.42215,-3.80839 0,0.29882 -0.53749,0.10957 -1.19443,-0.42054 -0.65694,-0.53011 -4.41942,-2.2563 -8.36106,-3.83598 -10.51824,-4.21536 -33.47613,-15.71384 -36.01666,-18.03899 -0.66402,-0.60772 -2.50686,-1.68018 -4.09519,-2.38325 -1.58834,-0.70307 -2.88789,-1.60333 -2.88789,-2.00059 0,-0.39726 -0.645,-0.72229 -1.43332,-0.72229 -0.78833,0 -1.43333,-0.43 -1.43333,-0.95555 0,-0.52556 -0.645,-0.95555 -1.43332,-0.95555 -0.78833,0 -1.43333,-0.33729 -1.43333,-0.74953 0,-0.41224 -1.39749,-1.5706 -3.10554,-2.57414 -1.70804,-1.00354 -3.59034,-2.27874 -4.18289,-2.83379 -0.59254,-0.55504 -2.02803,-1.65416 -3.18997,-2.44249 -1.16194,-0.78833 -3.09119,-2.29332 -4.28721,-3.34442 -1.19602,-1.05111 -4.06048,-3.41609 -6.36545,-5.25553 -5.28948,-4.22114 -26.0287,-25.00408 -30.46862,-30.53284 -1.83944,-2.29053 -4.20442,-5.13463 -5.25553,-6.32021 -1.0511,-1.18558 -2.55609,-3.10629 -3.34442,-4.26823 -0.78833,-1.16194 -1.87597,-2.59743 -2.41699,-3.18997 -0.54102,-0.59255 -2.261,-3.11908 -3.8222,-5.61451 -1.56119,-2.49544 -3.16103,-4.53792 -3.55519,-4.53886 -0.39417,-9.5e-4 -0.71667,-0.36792 -0.71667,-0.81553 0,-0.4476 -2.35972,-4.64008 -5.24383,-9.31661 -2.8841,-4.67653 -5.8498,-9.79278 -6.59043,-11.36944 -0.74064,-1.57666 -3.54877,-7.4854 -6.24029,-13.13054 -2.69152,-5.64515 -4.81313,-10.37512 -4.71469,-10.51105 0.0985,-0.13593 -0.41049,-1.32214 -1.13096,-2.63603 -0.72048,-1.31388 -1.39544,-2.81887 -1.49991,-3.34442 -0.10448,-0.52555 -0.73413,-2.24554 -1.39921,-3.8222 -0.66509,-1.57666 -1.29903,-3.18915 -1.40877,-3.58331 -0.10973,-0.39416 -0.28616,-0.82416 -0.39206,-0.95555 -0.10591,-0.13139 -0.34154,-1.02496 -0.52362,-1.98572 -0.18209,-0.96076 -0.64413,-2.46575 -1.02677,-3.34442 -0.38264,-0.87868 -0.80343,-2.10594 -0.93509,-2.72724 -0.13166,-0.6213 -1.55023,-6.21127 -3.15237,-12.42214 -3.63042,-14.07369 -5.96924,-27.02041 -7.39121,-40.91455 -1.36283,-13.31625 -0.82129,-47.36277 0.94234,-59.24408 3.3147,-22.33066 10.14478,-48.64396 15.93321,-61.38365 1.01226,-2.22788 1.84047,-4.49119 1.84047,-5.02961 0,-0.53841 0.40559,-1.72558 0.90131,-2.63817 0.49572,-0.91259 3.10659,-6.17422 5.80193,-11.69252 2.69534,-5.5183 6.80472,-13.18735 9.13196,-17.04232 2.32724,-3.85499 4.23134,-7.40247 4.23134,-7.88329 0,-0.48083 0.33148,-0.87423 0.73662,-0.87423 0.40514,0 1.79365,-1.93499 3.08558,-4.29998 1.29193,-2.36498 2.58773,-4.29997 2.87956,-4.29997 0.29183,0 1.35167,-1.39749 2.35521,-3.10554 1.00354,-1.70804 2.27874,-3.59539 2.83379,-4.19408 0.55504,-0.59871 1.7747,-2.14836 2.71035,-3.44367 0.93565,-1.29531 3.03026,-3.81544 4.65467,-5.60029 1.62442,-1.78485 4.54304,-5.18018 6.48583,-7.54516 5.28472,-6.43317 23.53317,-24.03567 30.70905,-29.62204 1.68773,-1.31388 3.86668,-3.14137 4.84211,-4.06109 0.97543,-0.91972 2.217,-1.67221 2.75905,-1.67221 0.54205,0 1.23305,-0.645 1.53556,-1.43333 0.30252,-0.78832 1.0459,-1.43332 1.65199,-1.43332 0.60608,0 2.2613,-1.07499 3.67826,-2.38887 1.41696,-1.31388 3.02506,-2.38888 3.57355,-2.38888 0.54849,0 0.99725,-0.43 0.99725,-0.95555 0,-0.52555 0.645,-0.95555 1.43333,-0.95555 0.78832,0 1.43332,-0.43 1.43332,-0.95555 0,-0.52555 0.60916,-0.95555 1.3537,-0.95555 0.74452,0 1.49702,-0.3225 1.67221,-0.71666 0.17518,-0.39416 2.00688,-1.57666 4.07046,-2.62776 2.06357,-1.05111 4.21355,-2.3411 4.77775,-2.86665 0.56418,-0.52555 2.53079,-1.7304 4.37022,-2.67743 1.83944,-0.94704 5.70941,-3.02406 8.59995,-4.61562 2.89054,-1.59155 6.81415,-3.46611 8.71914,-4.16569 1.90499,-0.69957 5.77497,-2.33857 8.59995,-3.642231 4.8771,-2.250657 23.58086,-9.088653 26.6362,-9.738057 0.78833,-0.167556 5.9483,-1.459918 11.4666,-2.871914 14.00263,-3.582927 16.84613,-4.138647 29.46395,-5.75831 8.6723,-1.113204 10.63731,-1.204753 28.3468,-1.320681 28.02708,-0.183467 54.28377,3.38109 77.8773,10.572469 14.77449,4.503307 38.88543,15.134574 53.03301,23.383924 2.10221,1.22578 4.4672,2.5381 5.25553,2.91626 0.78832,0.37816 1.86332,1.04411 2.38887,1.4799 1.82265,1.51134 14.96615,10.29285 15.40556,10.29285 0.24292,0 0.96102,0.43797 1.59578,0.97326 4.6199,3.89599 6.33125,5.27515 9.27628,7.47568 3.66493,2.73844 32.98247,31.77041 38.26798,37.89522 1.81413,2.10221 4.48987,5.5782 5.94607,7.72444 1.4562,2.14623 3.49868,4.81574 4.53886,5.93223 1.04017,1.11649 1.89122,2.47797 1.89122,3.0255 0,0.54752 0.43,0.9955 0.95555,0.9955 0.52555,0 0.95555,0.56392 0.95555,1.25315 0,0.68923 0.85999,2.17623 1.9111,3.30447 1.0511,1.12823 1.9111,2.46346 1.9111,2.96719 0,0.50374 0.3225,1.05921 0.71666,1.2344 0.39417,0.17518 1.78267,2.361 3.08558,4.85737 1.30291,2.49638 2.7004,4.53887 3.10553,4.53887 0.40515,0 0.65279,0.32249 0.55031,0.71666 -0.10248,0.39416 2.48016,5.9828 5.73919,12.41919 3.25902,6.43639 5.94264,11.91011 5.96359,12.16381 0.0363,0.43952 3.80959,9.35361 5.6722,13.4001 1.98838,4.31972 8.37587,25.57121 9.19061,30.57759 0.2566,1.57666 0.69958,3.51164 0.98441,4.29997 0.28484,0.78833 0.69464,2.50832 0.91066,3.8222 0.21602,1.31388 0.67165,3.89387 1.01251,5.7333 3.48556,18.80957 5.03579,44.07588 3.75222,61.15518 -0.98557,13.11419 -1.45707,18.25734 -1.97099,21.49987 -0.2499,1.57666 -0.68524,4.5427 -0.96745,6.59121 -0.2822,2.04852 -0.71585,4.6285 -0.96367,5.7333 -0.24782,1.1048 -0.62337,3.08373 -0.83457,4.39761 -0.56348,3.50566 -6.09213,25.0636 -7.1231,27.77527 -0.48609,1.27849 -0.90755,2.53954 -0.93659,2.80232 -0.15257,1.38063 -6.89445,19.29823 -8.80887,23.41097 -0.97856,2.10221 -3.08783,6.61718 -4.68727,10.03327 -3.60112,7.69129 -12.28415,22.41561 -17.85103,30.27104 -2.30138,3.24749 -4.18433,6.12344 -4.18433,6.39099 0,0.26755 -1.28999,1.89881 -2.86665,3.62503 -1.57665,1.72622 -2.86665,3.58432 -2.86665,4.1291 0,0.54478 -0.85999,1.5276 -1.9111,2.18402 -1.0511,0.65642 -1.9111,1.55018 -1.9111,1.98612 0,2.61893 -36.70534,39.32427 -39.32427,39.32427 -0.43594,0 -1.32969,0.86 -1.98612,1.9111 -0.65642,1.05111 -1.63923,1.9111 -2.18402,1.9111 -0.54478,0 -2.40287,1.28999 -4.12909,2.86665 -1.72622,1.57666 -3.31874,2.86665 -3.53894,2.86665 -0.48088,0 -15.04331,9.67478 -15.72604,10.44783 -0.26277,0.29754 -3.27275,2.02561 -6.68884,3.84013 -3.41609,1.81453 -7.64084,4.2682 -9.38833,5.45259 -1.74749,1.18439 -5.40246,2.98644 -8.12217,4.00456 -2.7197,1.01812 -7.52491,3.01642 -10.67822,4.44068 -3.15331,1.42427 -6.59329,2.94383 -7.6444,3.37683 -2.10378,0.86663 -20.45113,6.91471 -21.97764,7.24477 -0.52555,0.11365 -4.61053,1.12327 -9.07772,2.24363 -4.4672,1.12035 -9.19717,2.21227 -10.51105,2.42647 -25.38522,4.13861 -26.93311,4.2844 -49.21081,4.63471 -10.99641,0.17293 -21.73496,-0.19371 -27.23317,-0.92978 z m 55.42189,-18.98977 c 7.93508,-1.06361 27.14226,-5.32423 37.26644,-8.26658 27.08321,-7.87111 53.66062,-21.30524 77.66451,-39.25719 10.62431,-7.94567 34.2454,-30.31462 41.05069,-38.87462 2.57484,-3.23875 3.33632,-4.24065 9.50428,-12.50494 20.89371,-27.99497 38.29353,-70.05346 43.3326,-104.7427 0.29658,-2.04171 0.73796,-4.2966 0.98083,-5.01087 0.24288,-0.71426 0.86788,-8.45422 1.38888,-17.19989 0.85772,-14.39783 0.13351,-40.44098 -1.33235,-47.91214 -0.25777,-1.31388 -0.72429,-4.10886 -1.03669,-6.21107 -1.22193,-8.22254 -5.62309,-26.30464 -8.83802,-36.31089 -9.15275,-28.48716 -24.64352,-56.80708 -43.64363,-79.7884 -7.45107,-9.01232 -24.57517,-26.42703 -31.03388,-31.56053 -2.29533,-1.82437 -4.66031,-3.76064 -5.25553,-4.30283 -0.59521,-0.54219 -4.73717,-3.6073 -9.20437,-6.81136 -41.56959,-29.81544 -88.39863,-45.399337 -137.12138,-45.631624 -15.35788,-0.07322 -35.30165,0.910071 -36.76176,1.812472 -0.29978,0.185272 -2.47096,0.616942 -4.82484,0.959262 -2.35388,0.34231 -6.21477,1.05979 -8.57976,1.59438 -2.36498,0.5346 -5.37497,1.16981 -6.68885,1.41159 -2.59277,0.47712 -7.77966,2.01406 -11.27266,3.34023 -1.20723,0.45833 -2.85388,0.83334 -3.65923,0.83334 -3.2844,0 -28.70195,10.67419 -41.40587,17.38854 -38.22503,20.20293 -72.07825,51.52892 -93.5839,86.59763 -2.68256,4.37439 -4.87739,8.14541 -4.87739,8.38005 0,0.23464 -1.05616,2.09968 -2.34702,4.14453 -5.41678,8.58075 -15.1158,32.27135 -19.97862,48.79935 -6.91112,23.48984 -9.29766,41.72172 -9.13088,69.75512 0.23069,38.77716 7.93248,71.46626 24.76478,105.11047 7.12871,14.24879 8.46654,16.59166 15.45719,27.06943 38.58839,57.83732 97.97767,95.33098 168.9668,106.67218 8.98319,1.43515 15.08728,1.69515 33.44424,1.42451 12.35048,-0.18209 24.3904,-0.59044 26.75539,-0.90745 z"
     id="path51"
     inkscape:label="outer-circle"
     transform="matrix(0.03887625,0,0,0.03887625,-5e-4,0)" /><g
     id="g3"
     style="display:inline;fill:#9f3c3c;fill-opacity:1"> <g
   id="g2"
   style="fill:#9f3c3c;fill-opacity:1"> <path
   d="m 15.562,3.803 v 0 c -0.004,-10e-4 -0.008,-10e-4 -0.012,0 -0.004,0 -0.008,-10e-4 -0.012,-10e-4 v 10e-4 c -5.156,0.063 -9.334,4.274 -9.334,9.445 0,5.172 4.178,9.381 9.334,9.445 v 10e-4 c 0.004,0 0.008,0 0.012,-10e-4 0.004,0 0.008,10e-4 0.012,10e-4 v -10e-4 c 5.157,-0.062 9.334,-4.271 9.334,-9.445 10e-4,-5.169 -4.177,-9.38 -9.334,-9.445 z"
   id="path8"
   style="fill:#9f3c3c;fill-opacity:1" /> <path
   d="m 26.633,21.186 c 0.272,-0.395 0.456,-0.812 0.535,-1.212 0.085,-0.421 0.062,-0.816 -0.049,-1.155 L 27.117,18.817 C 27.115,18.81 27.113,18.802 27.111,18.796 27.105,18.783 27.099,18.769 27.097,18.755 L 27.095,18.75 c -0.146,-0.416 -0.164,-0.931 -0.052,-1.461 l -0.005,-0.003 c 0.021,-0.09 0.043,-0.179 0.072,-0.27 0.08,-0.242 0.184,-0.467 0.303,-0.671 0.452,-0.637 1.753,-1.187 1.753,-3.176 0,-2.082 -1.678,-2.646 -1.994,-3.552 C 27.164,9.597 27.154,9.586 27.146,9.568 27.129,9.524 27.112,9.482 27.097,9.437 26.896,8.802 26.879,8.172 27.045,7.675 L 27.058,7.641 C 27.166,7.32 27.193,6.935 27.123,6.526 H 27.122 V 6.523 C 27.113,6.471 27.101,6.419 27.09,6.366 L 27.089,6.35 C 27.077,6.303 27.065,6.255 27.051,6.208 L 27.04,6.172 C 27.03,6.131 27.016,6.089 27,6.049 L 26.98,5.995 26.941,5.896 26.911,5.818 26.881,5.754 C 26.864,5.717 26.848,5.682 26.83,5.646 L 26.821,5.629 C 26.738,5.469 26.642,5.311 26.531,5.159 L 26.511,5.132 26.5,5.118 C 26.197,4.707 25.835,4.388 25.46,4.179 25.086,3.968 24.701,3.867 24.348,3.87 h -0.004 c -0.009,0 -0.016,0 -0.022,-10e-4 C 24.307,3.87 24.294,3.871 24.278,3.87 H 24.272 C 23.833,3.882 23.336,3.739 22.867,3.467 L 22.864,3.47 C 22.787,3.423 22.708,3.372 22.632,3.317 22.095,2.921 21.714,2.42 21.558,1.921 L 21.546,1.885 C 21.446,1.562 21.242,1.236 20.944,0.946 V 0.945 C 20.906,0.907 20.866,0.87 20.825,0.836 L 20.811,0.823 C 20.774,0.792 20.737,0.76 20.698,0.73 L 20.669,0.707 20.563,0.63 20.516,0.598 20.426,0.539 20.356,0.496 20.294,0.461 C 20.259,0.44 20.224,0.422 20.189,0.404 L 20.172,0.395 C 20.013,0.314 19.842,0.242 19.662,0.184 L 19.63,0.174 19.61,0.167 C 19.124,0.015 18.643,-0.03 18.216,0.02 17.789,0.071 17.418,0.214 17.135,0.427 l -0.004,0.001 c -0.006,0.006 -0.013,0.01 -0.02,0.014 -0.01,0.011 -0.021,0.019 -0.035,0.026 l -0.003,0.003 c -0.351,0.27 -0.834,0.444 -1.375,0.502 V 0.978 C 15.649,0.983 15.599,0.984 15.55,0.985 15.5,0.984 15.45,0.984 15.402,0.978 V 0.974 C 14.861,0.916 14.377,0.742 14.027,0.472 L 14.024,0.469 C 14.012,0.46 14,0.453 13.99,0.441 13.983,0.437 13.976,0.433 13.97,0.427 L 13.967,0.426 C 13.683,0.213 13.312,0.07 12.885,0.019 12.459,-0.031 11.979,0.014 11.491,0.166 L 11.472,0.173 11.44,0.184 c -0.18,0.058 -0.35,0.13 -0.51,0.211 l -0.017,0.009 c -0.035,0.018 -0.07,0.036 -0.105,0.057 l -0.062,0.035 -0.07,0.043 -0.09,0.059 -0.047,0.032 -0.104,0.075 -0.03,0.024 C 10.366,0.759 10.329,0.79 10.292,0.821 L 10.278,0.834 C 10.237,0.868 10.197,0.905 10.159,0.943 L 10.158,0.944 C 9.86,1.234 9.657,1.561 9.557,1.883 L 9.545,1.92 C 9.39,2.419 9.009,2.921 8.472,3.316 8.395,3.373 8.315,3.423 8.239,3.47 L 8.235,3.466 C 7.766,3.738 7.27,3.881 6.831,3.87 H 6.825 C 6.809,3.871 6.795,3.87 6.781,3.869 6.772,3.87 6.767,3.87 6.757,3.87 H 6.754 C 6.399,3.867 6.016,3.967 5.642,4.178 5.267,4.387 4.905,4.706 4.602,5.117 L 4.59,5.132 4.57,5.16 C 4.458,5.311 4.363,5.47 4.28,5.63 L 4.271,5.646 C 4.254,5.682 4.237,5.717 4.221,5.754 L 4.191,5.818 4.16,5.896 4.121,5.996 4.103,6.049 C 4.088,6.089 4.074,6.131 4.063,6.171 L 4.052,6.208 C 4.038,6.254 4.024,6.302 4.014,6.35 L 4.011,6.367 C 3.999,6.419 3.986,6.473 3.978,6.523 v 0.002 0 C 3.908,6.935 3.935,7.319 4.044,7.641 L 4.056,7.675 C 4.222,8.172 4.205,8.802 4.004,9.437 3.99,9.481 3.972,9.523 3.955,9.567 3.946,9.585 3.936,9.597 3.929,9.616 c -0.316,0.906 -1.994,1.47 -1.994,3.552 0,1.989 1.301,2.539 1.753,3.176 0.119,0.204 0.222,0.429 0.303,0.671 0.029,0.091 0.052,0.18 0.072,0.27 l -0.005,0.003 c 0.113,0.53 0.096,1.045 -0.051,1.461 l -0.002,0.005 c -0.002,0.014 -0.008,0.028 -0.014,0.041 -0.002,0.008 -0.004,0.016 -0.006,0.021 l -0.002,0.002 c -0.112,0.339 -0.134,0.734 -0.049,1.155 0.079,0.399 0.263,0.817 0.535,1.212 L 0.79,28.078 h 3.924 l 1.993,3.022 3.391,-5.584 c 0.027,0.027 0.045,0.06 0.074,0.086 0.316,0.289 0.732,0.535 1.218,0.694 0.18,0.059 0.36,0.101 0.537,0.129 l 0.018,0.003 c 0.041,0.006 0.08,0.01 0.118,0.015 l 0.074,0.01 0.082,0.007 0.106,0.007 h 0.058 0.129 0.036 c 0.049,-0.003 0.099,-0.005 0.146,-0.01 l 0.018,-0.001 c 0.055,-0.005 0.108,-0.014 0.162,-0.021 h 10e-4 c 0.411,-0.061 0.767,-0.205 1.038,-0.408 l 0.029,-0.021 c 0.401,-0.299 0.976,-0.475 1.609,-0.494 0.633,0.02 1.208,0.195 1.609,0.494 l 0.028,0.021 c 0.271,0.203 0.627,0.349 1.039,0.408 v 0 c 0.055,0.007 0.107,0.016 0.162,0.021 l 0.019,0.001 c 0.048,0.005 0.098,0.007 0.146,0.01 h 0.036 0.13 0.057 l 0.106,-0.007 0.082,-0.007 0.074,-0.01 c 0.038,-0.005 0.077,-0.009 0.118,-0.015 l 0.018,-0.003 c 0.178,-0.028 0.357,-0.07 0.537,-0.129 0.485,-0.159 0.901,-0.405 1.219,-0.694 0.028,-0.026 0.047,-0.059 0.073,-0.086 l 3.392,5.584 1.992,-3.021 h 3.924 z m -1.376,-5.052 c -0.11,0.372 -0.239,0.736 -0.392,1.095 -0.516,1.218 -1.252,2.312 -2.191,3.251 -0.938,0.938 -2.031,1.677 -3.248,2.19 -1.229,0.519 -2.531,0.785 -3.875,0.799 C 14.208,23.455 12.905,23.189 11.677,22.67 10.459,22.154 9.366,21.418 8.428,20.48 7.489,19.542 6.751,18.447 6.237,17.229 6.085,16.872 5.956,16.506 5.845,16.134 5.723,15.688 5.433,14.497 5.433,13.249 5.433,11.668 5.845,10.364 5.845,10.364 5.955,9.993 6.084,9.628 6.237,9.268 6.752,8.05 7.49,6.958 8.429,6.019 9.367,5.081 10.46,4.343 11.678,3.828 12.907,3.309 14.209,3.043 15.552,3.03 c 1.343,0.013 2.646,0.279 3.875,0.798 1.217,0.515 2.311,1.253 3.248,2.191 0.939,0.939 1.678,2.032 2.191,3.249 0.152,0.359 0.281,0.725 0.392,1.096 0,0 0.412,1.304 0.412,2.885 -0.001,1.248 -0.291,2.439 -0.413,2.885 z"
   id="path7"
   style="fill:#9f3c3c;fill-opacity:1" /> </g> </g><path
     style="display:inline;fill:#f9f9f9;stroke-width:0.95555"
     d="M 372.61661,601.52249 C 302.63478,593.03869 240.54793,558.46835 197.0627,503.773 147.17352,441.02281 128.93163,357.65403 147.78016,278.54274 170.97922,181.17141 251.47901,103.53613 349.73119,83.777961 c 19.40361,-3.901998 29.82882,-4.890884 51.12191,-4.849178 57.59885,0.112814 109.75949,18.224531 157.65004,54.740737 11.83804,9.02642 34.15574,31.01713 43.77953,43.13807 20.66536,26.02753 38.0268,59.35028 46.93126,90.07773 14.63468,50.5012 13.58458,106.65921 -2.93389,156.90097 -27.34885,83.18294 -98.4679,149.65657 -183.05535,171.09838 -29.4565,7.46684 -63.31118,9.94699 -90.60808,6.63782 z m 63.64403,-20.42736 C 543.69218,562.73064 624.3903,479.31909 638.8839,371.65877 c 1.93624,-14.38261 2.17272,-44.88181 0.45529,-58.71624 -7.9338,-63.90868 -39.22653,-120.7761 -88.71025,-161.2107 -12.2814,-10.0355 -30.52659,-21.57775 -46.52669,-29.43367 -73.17107,-35.926394 -156.73547,-32.333861 -226.29605,9.72874 -62.95774,38.06993 -103.43013,98.06387 -115.92323,171.83791 -2.39309,14.13162 -2.91036,49.89611 -0.95361,65.93293 10.94865,89.73097 70.18271,165.48771 155.13312,198.40582 17.93422,6.94947 39.97487,12.11159 64.2463,15.04706 1.83944,0.22247 12.58937,0.27153 23.88875,0.10902 15.26637,-0.21956 23.50356,-0.80133 32.06311,-2.26451 z"
     id="path152"
     transform="matrix(0.03887625,0,0,0.03887625,-5e-4,0)"
     inkscape:label="path152" /></g><path
   d="m 15.608692,3.7607476 v 0 c -0.004,-9.991e-4 -0.008,-9.991e-4 -0.012,0 -0.004,0 -0.008,-9.991e-4 -0.01201,-9.991e-4 v 9.991e-4 c -5.156,0.063 -9.3340003,4.2740003 -9.3340003,9.4450004 0,5.171999 4.1780003,9.381001 9.3339993,9.445001 v 10e-4 c 0.004,0 0.008,0 0.012,-10e-4 0.004,0 0.008,10e-4 0.01201,10e-4 v -10e-4 c 5.157,-0.062 9.333999,-4.271 9.333999,-9.445001 0.001,-5.1690002 -4.176999,-9.3800003 -9.333998,-9.4450004 z"
   id="path8-2"
   style="fill:#000000;stroke-width:0.999997;filter:url(#filter178);fill-opacity:0" /><text
   xml:space="preserve"
   transform="matrix(0.03887625,0,0,0.03887625,8.51977,0.29938482)"
   id="text3"
   style="font-style:normal;font-variant:normal;font-weight:bold;font-stretch:normal;font-size:566.667px;font-family:'Malgun Gothic';-inkscape-font-specification:'Malgun Gothic, Bold';font-variant-ligatures:normal;font-variant-caps:normal;font-variant-numeric:normal;font-variant-east-asian:normal;white-space:pre;shape-inside:url(#rect3-2);display:inline;fill:#ffffff;stroke:#000000;stroke-width:5.9;stroke-dasharray:none;stroke-opacity:1;filter:url(#filter52-5)"><tspan
     x="28.378906"
     y="533.51528"
     id="tspan2">3</tspan></text></svg>
