<?xml version="1.0" encoding="UTF-8" standalone="no"?>
<!-- Uploaded to: SVG Repo, www.svgrepo.com, Transformed by: SVG Repo Mixer Tools -->

<svg
   width="800px"
   height="800px"
   viewBox="0 0 64 64"
   aria-hidden="true"
   role="img"
   class="iconify iconify--emojione-monotone"
   preserveAspectRatio="xMidYMid meet"
   fill="#000000"
   version="1.1"
   id="svg4"
   sodipodi:docname="other-stations.svg"
   inkscape:version="1.3 (0e150ed6c4, 2023-07-21)"
   xmlns:inkscape="http://www.inkscape.org/namespaces/inkscape"
   xmlns:sodipodi="http://sodipodi.sourceforge.net/DTD/sodipodi-0.dtd"
   xmlns="http://www.w3.org/2000/svg"
   xmlns:svg="http://www.w3.org/2000/svg">
  <defs
     id="defs4">
    <filter
       style="color-interpolation-filters:sRGB;"
       inkscape:label="Drop Shadow"
       id="filter21"
       x="-0.04"
       y="-0.04"
       width="1.1383333"
       height="1.1383333">
      <feFlood
         result="flood"
         in="SourceGraphic"
         flood-opacity="0.686275"
         flood-color="rgb(0,0,0)"
         id="feFlood20" />
      <feGaussianBlur
         result="blur"
         in="SourceGraphic"
         stdDeviation="1.000000"
         id="feGaussianBlur20" />
      <feOffset
         result="offset"
         in="blur"
         dx="3.500000"
         dy="3.500000"
         id="feOffset20" />
      <feComposite
         result="comp1"
         operator="in"
         in="flood"
         in2="offset"
         id="feComposite20" />
      <feComposite
         result="comp2"
         operator="over"
         in="SourceGraphic"
         in2="comp1"
         id="feComposite21" />
    </filter>
  </defs>
  <sodipodi:namedview
     id="namedview4"
     pagecolor="#ffffff"
     bordercolor="#000000"
     borderopacity="0.25"
     inkscape:showpageshadow="2"
     inkscape:pageopacity="0.0"
     inkscape:pagecheckerboard="0"
     inkscape:deskcolor="#d1d1d1"
     inkscape:zoom="0.74"
     inkscape:cx="400"
     inkscape:cy="400"
     inkscape:window-width="1440"
     inkscape:window-height="830"
     inkscape:window-x="-6"
     inkscape:window-y="-6"
     inkscape:window-maximized="1"
     inkscape:current-layer="svg4" />
  <g
     id="SVGRepo_bgCarrier"
     stroke-width="0" />
  <g
     id="SVGRepo_tracerCarrier"
     stroke-linecap="round"
     stroke-linejoin="round"
     style="display:inline" />
  <g
     id="SVGRepo_iconCarrier"
     style="display:inline;filter:url(#filter21)"
     inkscape:label="train-outside">
    <path
       d="m 19.465,32.089 h 25.07 a 1.67,1.67 0 0 0 1.668,-1.668 V 21.81 a 1.67,1.67 0 0 0 -1.668,-1.668 h -25.07 a 1.67,1.67 0 0 0 -1.668,1.668 v 8.611 c 0,0.92 0.748,1.668 1.668,1.668"
       fill="#000000"
       id="path1" />
    <path
       d="M 32,2 C 15.432,2 2,15.432 2,32 2,48.568 15.432,62 32,62 48.568,62 62,48.568 62,32 62,15.432 48.568,2 32,2 M 17.276,55.802 a 28.246,28.246 0 0 1 -4.785,-3.744 l 2.651,-3.472 a 5.166,5.166 0 0 0 2.795,0.827 h 3.527 l -4.188,6.389 m 0.662,-8.389 A 3.19,3.19 0 0 1 14.741,44.231 V 20.683 c 0,-6.288 8.63,-9.432 17.26,-9.432 8.629,0 17.258,3.144 17.258,9.432 v 23.549 a 3.19,3.19 0 0 1 -3.195,3.182 H 17.938 Z m 28.787,8.389 -4.188,-6.389 h 3.526 c 1.03,0 1.985,-0.309 2.793,-0.826 l 2.653,3.472 a 28.182,28.182 0 0 1 -4.784,3.743"
       fill="#000000"
       id="path2" />
    <path
       d="m 23.436,38.582 h -4.713 c -1.08,0 -1.959,0.873 -1.959,1.949 0,1.076 0.879,1.949 1.959,1.949 h 4.713 c 1.082,0 1.959,-0.873 1.959,-1.949 0,-1.076 -0.877,-1.949 -1.959,-1.949 m -2.356,3.62 a 1.6710003,1.6710003 0 1 1 -0.002,-3.342 1.6710003,1.6710003 0 0 1 0.002,3.342"
       fill="#000000"
       id="path3" />
    <path
       d="m 47.234,40.531 a 1.954,1.954 0 0 0 -1.957,-1.949 h -4.715 c -1.082,0 -1.957,0.873 -1.957,1.949 0,1.076 0.875,1.949 1.957,1.949 h 4.715 c 1.08,0 1.957,-0.873 1.957,-1.949 m -4.314,1.671 a 1.6710003,1.6710003 0 1 1 -0.002,-3.342 1.6710003,1.6710003 0 0 1 0.002,3.342"
       fill="#000000"
       id="path4" />
  </g>
  <g
     id="g7"
     inkscape:label="train-inside"
     style="fill:#fcfcc0;fill-opacity:1">
    <path
       style="fill:#fcfcc0;stroke-width:1.35135;fill-opacity:1"
       d="m 210.04371,589.11626 c -9.19275,-3.53688 -18.7213,-13.22121 -22.2266,-22.58998 -2.69795,-7.2109 -2.73099,-9.51908 -2.37119,-165.63577 l 0.36489,-158.32294 3.68768,-10.10464 c 16.07958,-44.05975 70.41424,-75.09607 153.06908,-87.43409 23.28979,-3.47651 91.60878,-3.4736 114.86486,0.005 23.8835,3.57233 39.76306,7.23194 59.54835,13.72353 50.11158,16.44168 81.71104,41.34588 93.52073,73.70567 l 3.68768,10.10464 0.36489,158.32294 c 0.3598,156.11669 0.32676,158.42487 -2.37119,165.63577 -3.60157,9.62607 -13.02742,19.07079 -22.61134,22.65658 -7.11856,2.66341 -10.31787,2.70784 -189.96008,2.63861 -177.81777,-0.0685 -182.90329,-0.14109 -189.56776,-2.70521 z m 95.64805,-61.06119 c 14.51986,-8.16062 16.05981,-31.85358 2.68914,-41.37434 -7.01751,-4.99691 -14.29248,-5.803 -48.30708,-5.35261 -28.49066,0.37726 -32.98773,0.73492 -37.51496,2.98368 -8.21257,4.07932 -12.22084,10.45946 -12.85805,20.46674 -0.67133,10.54295 3.01097,18.09981 11.21683,23.01937 5.38745,3.22987 5.74852,3.25771 42.41188,3.27039 35.80342,0.0124 37.14922,-0.0833 42.36224,-3.01323 z m 272.97297,0 c 10.98872,-6.176 15.23362,-21.58089 9.2037,-33.4005 -6.0432,-11.84565 -12.53401,-13.55842 -51.38194,-13.55842 -38.84794,0 -45.33875,1.71277 -51.38195,13.55842 -6.00672,11.77413 -2.01124,26.58767 8.96288,33.23055 5.1804,3.13581 5.79501,3.18222 42.23508,3.18904 35.79786,0.007 37.15001,-0.0897 42.36223,-3.01909 z M 567.58131,398.31081 c 2.45711,-1.6723 5.73961,-4.75743 7.29443,-6.85585 2.77075,-3.73943 2.82696,-5.03415 2.82696,-65.10361 0,-60.06946 -0.0562,-61.36417 -2.82696,-65.10361 -1.55482,-2.09842 -4.83732,-5.18355 -7.29443,-6.85585 l -4.46749,-3.04054 H 400 236.88617 l -4.46748,3.04054 c -2.45711,1.6723 -5.73961,4.75676 -7.29444,6.85436 -2.7534,3.71459 -2.83681,5.36256 -3.206,63.33957 -0.36549,57.39638 -0.28129,59.72769 2.35376,65.17098 1.68613,3.48308 4.67795,6.77263 7.81148,8.58885 l 5.07867,2.94362 162.97584,0.031 162.97582,0.031 z"
       id="path5"
       transform="scale(0.08)" />
    <path
       style="fill:#fcfcc0;stroke-width:1.35135;fill-opacity:1"
       d="m 559.01002,657.77027 -25.09973,-38.17568 25.95026,-0.79835 c 26.76355,-0.82338 37.20479,-2.61045 46.37729,-7.93772 l 4.21081,-2.44558 16.22857,21.13137 16.22858,21.13137 -7.48239,6.75675 c -15.08865,13.62538 -47.87772,38.51352 -50.73994,38.51352 -0.31554,0 -11.8686,-17.17906 -25.67345,-38.17568 z"
       id="path6"
       transform="scale(0.08)" />
    <path
       style="fill:#fcfcc0;stroke-width:1.35135;fill-opacity:1"
       d="m 256.08108,525.19 c -7.23138,-3.33994 -12.83784,-11.53715 -12.83784,-18.77024 0,-9.38285 10.7288,-19.93327 20.27027,-19.93327 11.0398,0 21.52423,12.01951 19.79257,22.69049 -2.05773,12.68028 -16.30163,21.05816 -27.225,16.01302 z"
       id="path15"
       transform="scale(0.08)" />
    <path
       style="fill:#fcfcc0;stroke-width:1.35135;fill-opacity:1"
       d="m 529.05405,525.19 c -7.23138,-3.33994 -12.83783,-11.53715 -12.83783,-18.77024 0,-9.38285 10.72879,-19.93327 20.27027,-19.93327 11.03979,0 21.52422,12.01951 19.79256,22.69049 -2.05773,12.68028 -16.30163,21.05816 -27.225,16.01302 z"
       id="path16"
       transform="scale(0.08)" />
    <path
       style="fill:#fcfcc0;stroke-width:1.35135;fill-opacity:1"
       d="m 203.37838,688.31924 c -12.28753,-8.54119 -27.83694,-20.95011 -38.73759,-30.91383 l -7.42168,-6.78379 16.16612,-21.10434 16.16612,-21.10434 4.21081,2.44558 c 9.17434,5.32834 19.61275,7.11433 46.39288,7.93772 l 25.96585,0.79835 -24.87027,37.81049 c -13.67865,20.79576 -25.36328,37.94962 -25.96585,38.11967 -0.60257,0.17005 -5.96045,-3.07243 -11.90639,-7.20551 z"
       id="path7"
       transform="scale(0.08)" />
  </g>
</svg>
